<svg xmlns="http://www.w3.org/2000/svg" width="800" height="800"><g/><path d="M0,-266.667A266.667,266.667,0,0,1,230.94,133.333L115.47,66.667A133.333,133.333,0,0,0,0,-133.333Z" fill="#B4A7D6" stroke="#fff"/><path d="M230.94,133.333A266.667,266.667,0,0,1,-14.69,266.262L-7.345,133.131A133.333,133.333,0,0,0,115.47,66.667Z" fill="#EAD1DC" stroke="#fff"/><path d="M-14.69,266.262A266.667,266.667,0,0,1,-244.206,107.119L-122.103,53.559A133.333,133.333,0,0,0,-7.345,133.131Z" fill="#93C47D" stroke="#fff"/><path d="M-244.206,107.119A266.667,266.667,0,0,1,-237.934,-120.409L-118.967,-60.204A133.333,133.333,0,0,0,-122.103,53.559Z" fill="#FFD966" stroke="#fff"/><path d="M-237.934,-120.409A266.667,266.667,0,0,1,-139.646,-227.179L-69.823,-113.589A133.333,133.333,0,0,0,-118.967,-60.204Z" fill="#EA9999" stroke="#fff"/><path d="M-139.646,-227.179A266.667,266.667,0,0,1,-29.336,-265.048L-14.668,-132.524A133.333,133.333,0,0,0,-69.823,-113.589Z" fill="#CCCCCC" stroke="#fff"/><path d="M0,-400A400,400,0,0,1,44.003,-397.572L29.336,-265.048A266.667,266.667,0,0,0,0,-266.667Z" fill="#B4A7D6" stroke="#fff"/><path d="M44.003,-397.572A400,400,0,0,1,87.472,-390.319L58.315,-260.212A266.667,266.667,0,0,0,29.336,-265.048Z" fill="#B4A7D6" stroke="#fff"/><path d="M87.472,-390.319A400,400,0,0,1,129.88,-378.327L86.587,-252.218A266.667,266.667,0,0,0,58.315,-260.212Z" fill="#B4A7D6" stroke="#fff"/><path d="M129.88,-378.327A400,400,0,0,1,170.711,-361.743L113.807,-241.162A266.667,266.667,0,0,0,86.587,-252.218Z" fill="#B4A7D6" stroke="#fff"/><path d="M170.711,-361.743A400,400,0,0,1,209.469,-340.768L139.646,-227.179A266.667,266.667,0,0,0,113.807,-241.162Z" fill="#B4A7D6" stroke="#fff"/><path d="M209.469,-340.768A400,400,0,0,1,245.685,-315.656L163.79,-210.437A266.667,266.667,0,0,0,139.646,-227.179Z" fill="#B4A7D6" stroke="#fff"/><path d="M245.685,-315.656A400,400,0,0,1,278.919,-286.713L185.946,-191.142A266.667,266.667,0,0,0,163.79,-210.437Z" fill="#B4A7D6" stroke="#fff"/><path d="M278.919,-286.713A400,400,0,0,1,308.767,-254.289L205.844,-169.526A266.667,266.667,0,0,0,185.946,-191.142Z" fill="#B4A7D6" stroke="#fff"/><path d="M308.767,-254.289A400,400,0,0,1,334.867,-218.779L223.244,-145.853A266.667,266.667,0,0,0,205.844,-169.526Z" fill="#B4A7D6" stroke="#fff"/><path d="M334.867,-218.779A400,400,0,0,1,356.902,-180.613L237.934,-120.409A266.667,266.667,0,0,0,223.244,-145.853Z" fill="#B4A7D6" stroke="#fff"/><path d="M356.902,-180.613A400,400,0,0,1,374.604,-140.255L249.736,-93.503A266.667,266.667,0,0,0,237.934,-120.409Z" fill="#B4A7D6" stroke="#fff"/><path d="M374.604,-140.255A400,400,0,0,1,387.76,-98.194L258.507,-65.463A266.667,266.667,0,0,0,249.736,-93.503Z" fill="#B4A7D6" stroke="#fff"/><path d="M387.76,-98.194A400,400,0,0,1,396.209,-54.941L264.139,-36.628A266.667,266.667,0,0,0,258.507,-65.463Z" fill="#B4A7D6" stroke="#fff"/><path d="M396.209,-54.941A400,400,0,0,1,399.848,-11.022L266.565,-7.348A266.667,266.667,0,0,0,264.139,-36.628Z" fill="#B4A7D6" stroke="#fff"/><path d="M399.848,-11.022A400,400,0,0,1,398.634,33.032L265.756,22.021A266.667,266.667,0,0,0,266.565,-7.348Z" fill="#B4A7D6" stroke="#fff"/><path d="M398.634,33.032A400,400,0,0,1,392.581,76.684L261.72,51.123A266.667,266.667,0,0,0,265.756,22.021Z" fill="#B4A7D6" stroke="#fff"/><path d="M392.581,76.684A400,400,0,0,1,381.762,119.406L254.508,79.604A266.667,266.667,0,0,0,261.72,51.123Z" fill="#B4A7D6" stroke="#fff"/><path d="M381.762,119.406A400,400,0,0,1,366.309,160.678L244.206,107.119A266.667,266.667,0,0,0,254.508,79.604Z" fill="#B4A7D6" stroke="#fff"/><path d="M346.41,200A400,400,0,0,1,322.306,236.894L214.871,157.929A266.667,266.667,0,0,0,230.94,133.333Z" fill="#EAD1DC" stroke="#fff"/><path d="M322.306,236.894A400,400,0,0,1,294.29,270.913L196.193,180.608A266.667,266.667,0,0,0,214.871,157.929Z" fill="#EAD1DC" stroke="#fff"/><path d="M294.29,270.913A400,400,0,0,1,262.701,301.643L175.134,201.095A266.667,266.667,0,0,0,196.193,180.608Z" fill="#EAD1DC" stroke="#fff"/><path d="M262.701,301.643A400,400,0,0,1,227.923,328.711L151.949,219.141A266.667,266.667,0,0,0,175.134,201.095Z" fill="#EAD1DC" stroke="#fff"/><path d="M227.923,328.711A400,400,0,0,1,190.379,351.79L126.919,234.526A266.667,266.667,0,0,0,151.949,219.141Z" fill="#EAD1DC" stroke="#fff"/><path d="M190.379,351.79A400,400,0,0,1,150.524,370.598L100.349,247.065A266.667,266.667,0,0,0,126.919,234.526Z" fill="#EAD1DC" stroke="#fff"/><path d="M150.524,370.598A400,400,0,0,1,108.841,384.907L72.561,256.605A266.667,266.667,0,0,0,100.349,247.065Z" fill="#EAD1DC" stroke="#fff"/><path d="M108.841,384.907A400,400,0,0,1,65.838,394.545L43.892,263.03A266.667,266.667,0,0,0,72.561,256.605Z" fill="#EAD1DC" stroke="#fff"/><path d="M65.838,394.545A400,400,0,0,1,22.035,399.393L14.69,266.262A266.667,266.667,0,0,0,43.892,263.03Z" fill="#EAD1DC" stroke="#fff"/><path d="M-22.035,399.393A400,400,0,0,1,-65.838,394.545L-43.892,263.03A266.667,266.667,0,0,0,-14.69,266.262Z" fill="#93C47D" stroke="#fff"/><path d="M-65.838,394.545A400,400,0,0,1,-108.841,384.907L-72.561,256.605A266.667,266.667,0,0,0,-43.892,263.03Z" fill="#93C47D" stroke="#fff"/><path d="M-108.841,384.907A400,400,0,0,1,-150.524,370.598L-100.349,247.065A266.667,266.667,0,0,0,-72.561,256.605Z" fill="#93C47D" stroke="#fff"/><path d="M-150.524,370.598A400,400,0,0,1,-190.379,351.79L-126.919,234.526A266.667,266.667,0,0,0,-100.349,247.065Z" fill="#93C47D" stroke="#fff"/><path d="M-190.379,351.79A400,400,0,0,1,-227.923,328.711L-151.949,219.141A266.667,266.667,0,0,0,-126.919,234.526Z" fill="#93C47D" stroke="#fff"/><path d="M-227.923,328.711A400,400,0,0,1,-262.701,301.643L-175.134,201.095A266.667,266.667,0,0,0,-151.949,219.141Z" fill="#93C47D" stroke="#fff"/><path d="M-262.701,301.643A400,400,0,0,1,-294.29,270.913L-196.193,180.608A266.667,266.667,0,0,0,-175.134,201.095Z" fill="#93C47D" stroke="#fff"/><path d="M-294.29,270.913A400,400,0,0,1,-322.306,236.894L-214.871,157.929A266.667,266.667,0,0,0,-196.193,180.608Z" fill="#93C47D" stroke="#fff"/><path d="M-322.306,236.894A400,400,0,0,1,-346.41,200L-230.94,133.333A266.667,266.667,0,0,0,-214.871,157.929Z" fill="#93C47D" stroke="#fff"/><path d="M-366.309,160.678A400,400,0,0,1,-381.762,119.406L-254.508,79.604A266.667,266.667,0,0,0,-244.206,107.119Z" fill="#FFD966" stroke="#fff"/><path d="M-381.762,119.406A400,400,0,0,1,-392.581,76.684L-261.72,51.123A266.667,266.667,0,0,0,-254.508,79.604Z" fill="#FFD966" stroke="#fff"/><path d="M-392.581,76.684A400,400,0,0,1,-398.634,33.032L-265.756,22.021A266.667,266.667,0,0,0,-261.72,51.123Z" fill="#FFD966" stroke="#fff"/><path d="M-398.634,33.032A400,400,0,0,1,-399.848,-11.022L-266.565,-7.348A266.667,266.667,0,0,0,-265.756,22.021Z" fill="#FFD966" stroke="#fff"/><path d="M-399.848,-11.022A400,400,0,0,1,-396.209,-54.941L-264.139,-36.628A266.667,266.667,0,0,0,-266.565,-7.348Z" fill="#FFD966" stroke="#fff"/><path d="M-396.209,-54.941A400,400,0,0,1,-387.76,-98.194L-258.507,-65.463A266.667,266.667,0,0,0,-264.139,-36.628Z" fill="#FFD966" stroke="#fff"/><path d="M-387.76,-98.194A400,400,0,0,1,-374.604,-140.255L-249.736,-93.503A266.667,266.667,0,0,0,-258.507,-65.463Z" fill="#FFD966" stroke="#fff"/><path d="M-356.902,-180.613A400,400,0,0,1,-334.867,-218.779L-223.244,-145.853A266.667,266.667,0,0,0,-237.934,-120.409Z" fill="#EA9999" stroke="#fff"/><path d="M-334.867,-218.779A400,400,0,0,1,-308.767,-254.289L-205.844,-169.526A266.667,266.667,0,0,0,-223.244,-145.853Z" fill="#EA9999" stroke="#fff"/><path d="M-308.767,-254.289A400,400,0,0,1,-278.919,-286.713L-185.946,-191.142A266.667,266.667,0,0,0,-205.844,-169.526Z" fill="#EA9999" stroke="#fff"/><path d="M-278.919,-286.713A400,400,0,0,1,-245.685,-315.656L-163.79,-210.437A266.667,266.667,0,0,0,-185.946,-191.142Z" fill="#EA9999" stroke="#fff"/><path d="M-209.469,-340.768A400,400,0,0,1,-170.711,-361.743L-113.807,-241.162A266.667,266.667,0,0,0,-139.646,-227.179Z" fill="#CCCCCC" stroke="#fff"/><path d="M-170.711,-361.743A400,400,0,0,1,-129.88,-378.327L-86.587,-252.218A266.667,266.667,0,0,0,-113.807,-241.162Z" fill="#CCCCCC" stroke="#fff"/><path d="M-129.88,-378.327A400,400,0,0,1,-87.472,-390.319L-58.315,-260.212A266.667,266.667,0,0,0,-86.587,-252.218Z" fill="#CCCCCC" stroke="#fff"/><text class="category" transform="rotate(-30.000000000000007) translate(200,0) rotate(0)" dy="0.35em" text-anchor="middle" style="font-size: 16px; font-weight: bold;">Trust and Authenticity</text><text class="category" transform="rotate(61.57894736842104) translate(200,0) rotate(0)" dy="0.35em" text-anchor="middle" style="font-size: 16px; font-weight: bold;">Watermarking</text><text class="category" transform="rotate(124.73684210526312) translate(200,0) rotate(180)" dy="0.35em" text-anchor="middle" style="font-size: 16px; font-weight: bold;">Rights Declarations</text><text class="category" transform="rotate(181.57894736842104) translate(200,0) rotate(180)" dy="0.35em" text-anchor="middle" style="font-size: 16px; font-weight: bold;">Content Provenance</text><text class="category" transform="rotate(222.63157894736838) translate(200,0) rotate(180)" dy="0.35em" text-anchor="middle" style="font-size: 16px; font-weight: bold;">Asset Identifiers</text><text class="category" transform="rotate(251.05263157894734) translate(200,0) rotate(180)" dy="0.35em" text-anchor="middle" style="font-size: 16px; font-weight: bold;">Other</text><text class="standard" transform="rotate(-86.84210526315789) translate(333.33333333333337,0) rotate(0)" dy="0.35em" text-anchor="middle" style="font-size: 12px;">Content Credentials</text><text class="standard" transform="rotate(-80.52631578947368) translate(333.33333333333337,0) rotate(0)" dy="0.35em" text-anchor="middle" style="font-size: 12px;">Content Credentials</text><text class="standard" transform="rotate(-74.21052631578948) translate(333.33333333333337,0) rotate(0)" dy="0.35em" text-anchor="middle" style="font-size: 12px;">JPEG Trust Part 1: Core foundation</text><text class="standard" transform="rotate(-67.89473684210526) translate(333.33333333333337,0) rotate(0)" dy="0.35em" text-anchor="middle" style="font-size: 12px;">JPEG Trust Part 2: Trust profiles catalog</text><text class="standard" transform="rotate(-61.578947368421055) translate(333.33333333333337,0) rotate(0)" dy="0.35em" text-anchor="middle" style="font-size: 12px;">CAWG Metadata</text><text class="standard" transform="rotate(-55.26315789473684) translate(333.33333333333337,0) rotate(0)" dy="0.35em" text-anchor="middle" style="font-size: 12px;">Originator Profile</text><text class="standard" transform="rotate(-48.94736842105263) translate(333.33333333333337,0) rotate(0)" dy="0.35em" text-anchor="middle" style="font-size: 12px;">PROV</text><text class="standard" transform="rotate(-42.631578947368425) translate(333.33333333333337,0) rotate(0)" dy="0.35em" text-anchor="middle" style="font-size: 12px;">Information technology — Artificial intelligence — Overview of trustworthiness in artificial intelligence</text><text class="standard" transform="rotate(-36.31578947368421) translate(333.33333333333337,0) rotate(0)" dy="0.35em" text-anchor="middle" style="font-size: 12px;">Framework for trust-based media services</text><text class="standard" transform="rotate(-30.000000000000007) translate(333.33333333333337,0) rotate(0)" dy="0.35em" text-anchor="middle" style="font-size: 12px;">Trust.txt</text><text class="standard" transform="rotate(-23.684210526315795) translate(333.33333333333337,0) rotate(0)" dy="0.35em" text-anchor="middle" style="font-size: 12px;">Chromium Reputation Provider Framework</text><text class="standard" transform="rotate(-17.36842105263159) translate(333.33333333333337,0) rotate(0)" dy="0.35em" text-anchor="middle" style="font-size: 12px;">Information technology — Multimedia framework (MPEG-21) — Part 11: Evaluation Tools for Persistent Association Technologies</text><text class="standard" transform="rotate(-11.05263157894737) translate(333.33333333333337,0) rotate(0)" dy="0.35em" text-anchor="middle" style="font-size: 12px;">H.MMAUTH: Framework for authentication of multimedia content</text><text class="standard" transform="rotate(-4.736842105263165) translate(333.33333333333337,0) rotate(0)" dy="0.35em" text-anchor="middle" style="font-size: 12px;">H.274(V4): Versatile supplemental enhancement information messages for coded video bitstreams</text><text class="standard" transform="rotate(1.5789473684210549) translate(333.33333333333337,0) rotate(0)" dy="0.35em" text-anchor="middle" style="font-size: 12px;">H.VADS: Assessment criteria for video authenticity detection services</text><text class="standard" transform="rotate(7.89473684210526) translate(333.33333333333337,0) rotate(0)" dy="0.35em" text-anchor="middle" style="font-size: 12px;">IPTC Photo Metadata Standard</text><text class="standard" transform="rotate(14.21052631578948) translate(333.33333333333337,0) rotate(0)" dy="0.35em" text-anchor="middle" style="font-size: 12px;">Dynamic Adaptive Streaming over HTTP (DASH) Part 4: Segment Encryption and Authentication</text><text class="standard" transform="rotate(20.5263157894737) translate(333.33333333333337,0) rotate(0)" dy="0.35em" text-anchor="middle" style="font-size: 12px;">Recommended Practices for Levels of Artificial Intelligence Generated Content Technologies</text><text class="standard" transform="rotate(33.157894736842096) translate(333.33333333333337,0) rotate(0)" dy="0.35em" text-anchor="middle" style="font-size: 12px;">Content Credentials</text><text class="standard" transform="rotate(39.4736842105263) translate(333.33333333333337,0) rotate(0)" dy="0.35em" text-anchor="middle" style="font-size: 12px;">JPEG Trust Part 1: Core foundation</text><text class="standard" transform="rotate(45.78947368421052) translate(333.33333333333337,0) rotate(0)" dy="0.35em" text-anchor="middle" style="font-size: 12px;">JPEG Trust Part 3: Media asset watermarking</text><text class="standard" transform="rotate(52.10526315789474) translate(333.33333333333337,0) rotate(0)" dy="0.35em" text-anchor="middle" style="font-size: 12px;">Open Binding of Content Identifiers (OBID)</text><text class="standard" transform="rotate(58.42105263157896) translate(333.33333333333337,0) rotate(0)" dy="0.35em" text-anchor="middle" style="font-size: 12px;">X.ig-dw: Implementation guidelines for digital watermarking</text><text class="standard" transform="rotate(64.73684210526315) translate(333.33333333333337,0) rotate(0)" dy="0.35em" text-anchor="middle" style="font-size: 12px;">A Review of Medical Image Watermarking Requirements for Teleradiology</text><text class="standard" transform="rotate(71.05263157894737) translate(333.33333333333337,0) rotate(0)" dy="0.35em" text-anchor="middle" style="font-size: 12px;">Information technology — Multimedia framework (MPEG-21) — Part 11: Evaluation Tools for Persistent Association Technologies</text><text class="standard" transform="rotate(77.36842105263156) translate(333.33333333333337,0) rotate(0)" dy="0.35em" text-anchor="middle" style="font-size: 12px;">IEEE Draft Standard for Evaluation Method of Robustness of Digital Watermarking Implementation in Digital Contents</text><text class="standard" transform="rotate(83.68421052631578) translate(333.33333333333337,0) rotate(0)" dy="0.35em" text-anchor="middle" style="font-size: 12px;">2024—IEEE Draft Standard for Transparent Human and Machine Agency Identification</text><text class="standard" transform="rotate(96.31578947368419) translate(333.33333333333337,0) rotate(180)" dy="0.35em" text-anchor="middle" style="font-size: 12px;">JPEG Trust Part 1: Core foundation</text><text class="standard" transform="rotate(102.63157894736841) translate(333.33333333333337,0) rotate(180)" dy="0.35em" text-anchor="middle" style="font-size: 12px;">CAWG Metadata</text><text class="standard" transform="rotate(108.9473684210526) translate(333.33333333333337,0) rotate(180)" dy="0.35em" text-anchor="middle" style="font-size: 12px;">Trust.txt</text><text class="standard" transform="rotate(115.26315789473682) translate(333.33333333333337,0) rotate(180)" dy="0.35em" text-anchor="middle" style="font-size: 12px;">TDM Reservation Protocol</text><text class="standard" transform="rotate(121.57894736842101) translate(333.33333333333337,0) rotate(180)" dy="0.35em" text-anchor="middle" style="font-size: 12px;">Spawning ai.txt</text><text class="standard" transform="rotate(127.89473684210526) translate(333.33333333333337,0) rotate(180)" dy="0.35em" text-anchor="middle" style="font-size: 12px;">Robots.txt</text><text class="standard" transform="rotate(134.21052631578945) translate(333.33333333333337,0) rotate(180)" dy="0.35em" text-anchor="middle" style="font-size: 12px;">Vocabulary for Expressing Content Preferences for AI Training</text><text class="standard" transform="rotate(140.5263157894737) translate(333.33333333333337,0) rotate(180)" dy="0.35em" text-anchor="middle" style="font-size: 12px;">Information technology — Specification of digital rights management (DRM) technology for digital publications
Part 1: Overview of copyright protection technologies in use in the publishing industry</text><text class="standard" transform="rotate(146.84210526315783) translate(333.33333333333337,0) rotate(180)" dy="0.35em" text-anchor="middle" style="font-size: 12px;">IPTC Photo Metadata Standard</text><text class="standard" transform="rotate(159.47368421052627) translate(333.33333333333337,0) rotate(180)" dy="0.35em" text-anchor="middle" style="font-size: 12px;">Content Credentials</text><text class="standard" transform="rotate(165.78947368421055) translate(333.33333333333337,0) rotate(180)" dy="0.35em" text-anchor="middle" style="font-size: 12px;">Content Credentials</text><text class="standard" transform="rotate(172.10526315789468) translate(333.33333333333337,0) rotate(180)" dy="0.35em" text-anchor="middle" style="font-size: 12px;">JPEG Trust Part 1: Core foundation</text><text class="standard" transform="rotate(178.42105263157896) translate(333.33333333333337,0) rotate(180)" dy="0.35em" text-anchor="middle" style="font-size: 12px;">CAWG Metadata</text><text class="standard" transform="rotate(184.73684210526312) translate(333.33333333333337,0) rotate(180)" dy="0.35em" text-anchor="middle" style="font-size: 12px;">Originator Profile</text><text class="standard" transform="rotate(191.05263157894734) translate(333.33333333333337,0) rotate(180)" dy="0.35em" text-anchor="middle" style="font-size: 12px;">PROV</text><text class="standard" transform="rotate(197.3684210526315) translate(333.33333333333337,0) rotate(180)" dy="0.35em" text-anchor="middle" style="font-size: 12px;">IPTC Photo Metadata Standard</text><text class="standard" transform="rotate(209.99999999999994) translate(333.33333333333337,0) rotate(180)" dy="0.35em" text-anchor="middle" style="font-size: 12px;">JPEG Trust Part 1: Core foundation</text><text class="standard" transform="rotate(216.31578947368422) translate(333.33333333333337,0) rotate(180)" dy="0.35em" text-anchor="middle" style="font-size: 12px;">ISCC: International Standard Content Code (ISCC)</text><text class="standard" transform="rotate(222.63157894736838) translate(333.33333333333337,0) rotate(180)" dy="0.35em" text-anchor="middle" style="font-size: 12px;">Unique Media Identifier (UMid)</text><text class="standard" transform="rotate(228.94736842105266) translate(333.33333333333337,0) rotate(180)" dy="0.35em" text-anchor="middle" style="font-size: 12px;">Open Binding of Content Identifiers (OBID)</text><text class="standard" transform="rotate(241.57894736842104) translate(333.33333333333337,0) rotate(180)" dy="0.35em" text-anchor="middle" style="font-size: 12px;">Credible Web</text><text class="standard" transform="rotate(247.89473684210526) translate(333.33333333333337,0) rotate(180)" dy="0.35em" text-anchor="middle" style="font-size: 12px;">Technical and Governance Guidelines for Responsible Data Collection</text><text class="standard" transform="rotate(254.21052631578954) translate(333.33333333333337,0) rotate(180)" dy="0.35em" text-anchor="middle" style="font-size: 12px;">Data Provenance Standards</text><text text-anchor="middle" y="10" style="font-size: 20px; font-weight: bold;">AI &amp; Multimedia
Authenticity
Standardization Map</text></svg>