<svg xmlns="http://www.w3.org/2000/svg" width="800" height="800"><g transform="translate(400,400)"/><path d="M0,-266.667A266.667,266.667,0,0,1,259.981,59.339L129.99,29.669A133.333,133.333,0,0,0,0,-133.333Z" fill="#B4A7D6" stroke="#fff"/><path d="M259.981,59.339A266.667,266.667,0,0,1,-39.745,263.688L-19.872,131.844A133.333,133.333,0,0,0,129.99,29.669Z" fill="#FFD966" stroke="#fff"/><path d="M-39.745,263.688A266.667,266.667,0,0,1,-259.981,59.339L-129.99,29.669A133.333,133.333,0,0,0,-19.872,131.844Z" fill="#EAD1DC" stroke="#fff"/><path d="M-259.981,59.339A266.667,266.667,0,0,1,-208.488,-166.264L-104.244,-83.132A133.333,133.333,0,0,0,-129.99,29.669Z" fill="#93C47D" stroke="#fff"/><path d="M-208.488,-166.264A266.667,266.667,0,0,1,-78.601,-254.819L-39.301,-127.41A133.333,133.333,0,0,0,-104.244,-83.132Z" fill="#EA9999" stroke="#fff"/><path d="M0,-400A400,400,0,0,1,117.902,-382.229L78.601,-254.819A266.667,266.667,0,0,0,0,-266.667Z" fill="#B4A7D6" stroke="#fff"/><path d="M117.902,-382.229A400,400,0,0,1,225.328,-330.496L150.219,-220.33A266.667,266.667,0,0,0,78.601,-254.819Z" fill="#B4A7D6" stroke="#fff"/><path d="M225.328,-330.496A400,400,0,0,1,312.733,-249.396L208.488,-166.264A266.667,266.667,0,0,0,150.219,-220.33Z" fill="#B4A7D6" stroke="#fff"/><path d="M312.733,-249.396A400,400,0,0,1,372.349,-146.136L248.233,-97.424A266.667,266.667,0,0,0,208.488,-166.264Z" fill="#B4A7D6" stroke="#fff"/><path d="M372.349,-146.136A400,400,0,0,1,398.882,-29.892L265.921,-19.928A266.667,266.667,0,0,0,248.233,-97.424Z" fill="#B4A7D6" stroke="#fff"/><path d="M389.971,89.008A400,400,0,0,1,346.41,200L230.94,133.333A266.667,266.667,0,0,0,259.981,59.339Z" fill="#FFD966" stroke="#fff"/><path d="M346.41,200A400,400,0,0,1,272.069,293.221L181.379,195.48A266.667,266.667,0,0,0,230.94,133.333Z" fill="#FFD966" stroke="#fff"/><path d="M272.069,293.221A400,400,0,0,1,173.553,360.388L115.702,240.258A266.667,266.667,0,0,0,181.379,195.48Z" fill="#FFD966" stroke="#fff"/><path d="M173.553,360.388A400,400,0,0,1,59.617,395.532L39.745,263.688A266.667,266.667,0,0,0,115.702,240.258Z" fill="#FFD966" stroke="#fff"/><path d="M-59.617,395.532A400,400,0,0,1,-173.553,360.388L-115.702,240.258A266.667,266.667,0,0,0,-39.745,263.688Z" fill="#EAD1DC" stroke="#fff"/><path d="M-173.553,360.388A400,400,0,0,1,-272.069,293.221L-181.379,195.48A266.667,266.667,0,0,0,-115.702,240.258Z" fill="#EAD1DC" stroke="#fff"/><path d="M-272.069,293.221A400,400,0,0,1,-346.41,200L-230.94,133.333A266.667,266.667,0,0,0,-181.379,195.48Z" fill="#EAD1DC" stroke="#fff"/><path d="M-389.971,89.008A400,400,0,0,1,-398.882,-29.892L-265.921,-19.928A266.667,266.667,0,0,0,-259.981,59.339Z" fill="#93C47D" stroke="#fff"/><path d="M-398.882,-29.892A400,400,0,0,1,-372.349,-146.136L-248.233,-97.424A266.667,266.667,0,0,0,-265.921,-19.928Z" fill="#93C47D" stroke="#fff"/><path d="M-312.733,-249.396A400,400,0,0,1,-225.328,-330.496L-150.219,-220.33A266.667,266.667,0,0,0,-208.488,-166.264Z" fill="#EA9999" stroke="#fff"/><text class="category" transform="rotate(-38.57142857142857) translate(200,0) rotate(0)" dy="0.35em" text-anchor="middle" style="font-size: 16px; font-weight: bold;">Trust and Authenticity</text><text class="category" transform="rotate(55.71428571428575) translate(200,0) rotate(0)" dy="0.35em" text-anchor="middle" style="font-size: 16px; font-weight: bold;">Content Provenance</text><text class="category" transform="rotate(132.85714285714286) translate(200,0) rotate(180)" dy="0.35em" text-anchor="middle" style="font-size: 16px; font-weight: bold;">Watermarking</text><text class="category" transform="rotate(192.85714285714283) translate(200,0) rotate(180)" dy="0.35em" text-anchor="middle" style="font-size: 16px; font-weight: bold;">Rights Declarations</text><text class="category" transform="rotate(235.71428571428567) translate(200,0) rotate(180)" dy="0.35em" text-anchor="middle" style="font-size: 16px; font-weight: bold;">Asset Identifiers</text><text class="standard" transform="rotate(-81.42857142857143) translate(333.33333333333337,0) rotate(0)" dy="0.35em" text-anchor="middle" style="font-size: 12px;">Content Credentials</text><text class="standard" transform="rotate(-64.28571428571428) translate(333.33333333333337,0) rotate(0)" dy="0.35em" text-anchor="middle" style="font-size: 12px;">Content Credentials</text><text class="standard" transform="rotate(-47.14285714285714) translate(333.33333333333337,0) rotate(0)" dy="0.35em" text-anchor="middle" style="font-size: 12px;">JPEG Trust Part 1: Core foundation</text><text class="standard" transform="rotate(-29.999999999999993) translate(333.33333333333337,0) rotate(0)" dy="0.35em" text-anchor="middle" style="font-size: 12px;">JPEG Trust Part 2: Trust profiles catalog</text><text class="standard" transform="rotate(-12.857142857142847) translate(333.33333333333337,0) rotate(0)" dy="0.35em" text-anchor="middle" style="font-size: 12px;">CAWG Metadata</text><text class="standard" transform="rotate(21.42857142857143) translate(333.33333333333337,0) rotate(0)" dy="0.35em" text-anchor="middle" style="font-size: 12px;">Content Credentials</text><text class="standard" transform="rotate(38.571428571428555) translate(333.33333333333337,0) rotate(0)" dy="0.35em" text-anchor="middle" style="font-size: 12px;">Content Credentials</text><text class="standard" transform="rotate(55.714285714285694) translate(333.33333333333337,0) rotate(0)" dy="0.35em" text-anchor="middle" style="font-size: 12px;">JPEG Trust Part 1: Core foundation</text><text class="standard" transform="rotate(72.85714285714283) translate(333.33333333333337,0) rotate(0)" dy="0.35em" text-anchor="middle" style="font-size: 12px;">CAWG Metadata</text><text class="standard" transform="rotate(107.14285714285717) translate(333.33333333333337,0) rotate(180)" dy="0.35em" text-anchor="middle" style="font-size: 12px;">Content Credentials</text><text class="standard" transform="rotate(124.28571428571428) translate(333.33333333333337,0) rotate(180)" dy="0.35em" text-anchor="middle" style="font-size: 12px;">JPEG Trust Part 1: Core foundation</text><text class="standard" transform="rotate(141.42857142857142) translate(333.33333333333337,0) rotate(180)" dy="0.35em" text-anchor="middle" style="font-size: 12px;">JPEG Trust Part 3: Media asset watermarking</text><text class="standard" transform="rotate(175.71428571428578) translate(333.33333333333337,0) rotate(180)" dy="0.35em" text-anchor="middle" style="font-size: 12px;">JPEG Trust Part 1: Core foundation</text><text class="standard" transform="rotate(192.85714285714283) translate(333.33333333333337,0) rotate(180)" dy="0.35em" text-anchor="middle" style="font-size: 12px;">CAWG Metadata</text><text class="standard" transform="rotate(227.1428571428571) translate(333.33333333333337,0) rotate(180)" dy="0.35em" text-anchor="middle" style="font-size: 12px;">JPEG Trust Part 1: Core foundation</text><text text-anchor="middle" y="10" style="font-size: 20px; font-weight: bold;">AI &amp; Multimedia
Authenticity
Standardization Map</text></svg>